<svg xmlns="http://www.w3.org/2000/svg" viewBox="0 0 1131 587"><defs><style>.cls-1{fill:#ebebeb;}.cls-1,.cls-6{stroke:#6b6b6b;}.cls-1,.cls-2,.cls-6{stroke-miterlimit:10;}.cls-2{fill:none;stroke:#a5a5a5;}.cls-3{font-size:10px;}.cls-3,.cls-4,.cls-5,.cls-7,.cls-8{fill:#182e3f;}.cls-3,.cls-4,.cls-8{font-family:OpenSans-Light, Open Sans;}.cls-4,.cls-7{font-size:14px;}.cls-5{font-size:20px;font-family:OpenSans-Bold, Open Sans;}.cls-5,.cls-7{font-weight:700;}.cls-6{fill:#d6d6d6;}.cls-7{font-family:OpenSans-Semibold, Open Sans;}.cls-8{font-size:11px;}.cls-9{fill:#f28983;}.cls-10{fill:#fdc086;}.cls-11{fill:#9cffd9;}.cls-12{fill:#75aadb;}</style></defs><title>4worker + baseline final</title><g id="axes_and_marks" data-name="axes and marks"><rect class="cls-1" x="159" y="62" width="851" height="45"/><line class="cls-2" x1="196.5" y1="117.96" x2="196.5" y2="55"/><line class="cls-2" x1="434.5" y1="118" x2="434.5" y2="55.04"/><line class="cls-2" x1="674.5" y1="118" x2="674.5" y2="55.04"/><line class="cls-2" x1="912.5" y1="118" x2="912.5" y2="55.04"/><line class="cls-2" x1="315.5" y1="113.3" x2="315.5" y2="58"/><line class="cls-2" x1="554.5" y1="113.3" x2="554.5" y2="58"/><line class="cls-2" x1="793.5" y1="113.3" x2="793.5" y2="58"/><text class="cls-3" transform="translate(193.05 127.98)">0</text><text class="cls-3" transform="translate(424.05 127.98)">100</text><text class="cls-4" transform="translate(524.06 145.98)">Elapsed time (sec)</text><text class="cls-5" transform="translate(155.43 44.98)">Baseline test</text><text class="cls-3" transform="translate(664.05 127.98)">200</text><text class="cls-3" transform="translate(902.05 127.98)">300</text><rect class="cls-1" x="159" y="236" width="851" height="45"/><rect class="cls-6" x="159" y="280.5" width="851" height="45"/><rect class="cls-1" x="159" y="325.5" width="851" height="45"/><rect class="cls-6" x="159" y="370.5" width="851" height="45"/><text class="cls-5" transform="translate(156.89 219.98)">4 workers test</text><text class="cls-4" transform="translate(524.06 453.98)">Elapsed time (sec)</text><text class="cls-7" transform="translate(110.85 528.98)">Events</text><text class="cls-8" transform="translate(111.06 261.73)">worker 0</text><text class="cls-8" transform="translate(111.06 306.23)">worker 1</text><text class="cls-8" transform="translate(111.06 351.23)">worker 2</text><text class="cls-8" transform="translate(111.06 396.23)">worker 3</text><line class="cls-2" x1="197.5" y1="426.87" x2="197.5" y2="229"/><line class="cls-2" x1="435.5" y1="427" x2="435.5" y2="229.13"/><line class="cls-2" x1="675.5" y1="427" x2="675.5" y2="229.13"/><line class="cls-2" x1="913.5" y1="427" x2="913.5" y2="229.13"/><line class="cls-2" x1="316.5" y1="422" x2="316.5" y2="232"/><line class="cls-2" x1="555.5" y1="422" x2="555.5" y2="232"/><line class="cls-2" x1="794.5" y1="422" x2="794.5" y2="232"/><text class="cls-3" transform="translate(194.05 436.98)">0</text><text class="cls-3" transform="translate(425.05 436.98)">100</text><text class="cls-3" transform="translate(665.05 436.98)">200</text><text class="cls-3" transform="translate(903.05 436.98)">300</text><rect class="cls-9" x="112.49" y="537" width="24" height="23"/><text class="cls-8" transform="translate(141.55 552.02)">Homepage</text><rect class="cls-10" x="217.59" y="537" width="24" height="23"/><text class="cls-8" transform="translate(247.65 552.02)">JS/CSS</text><rect class="cls-11" x="296.26" y="537" width="24" height="23"/><text class="cls-8" transform="translate(325.31 552.02)">Start session</text><rect class="cls-12" x="399.49" y="537" width="24" height="23"/><text class="cls-8" transform="translate(428.55 552.02)">Calculate</text></g><g id="bars"><rect class="cls-12" x="210" y="66" width="3" height="37"/><rect class="cls-12" x="204" y="66" width="3" height="37"/><rect class="cls-12" x="197" y="66" width="3" height="37"/><rect class="cls-12" x="216" y="66" width="3" height="37"/><rect class="cls-12" x="222" y="66" width="3" height="37"/><rect class="cls-12" x="229" y="66" width="3" height="37"/><rect class="cls-12" x="237" y="66" width="3" height="37"/><rect class="cls-12" x="242" y="66" width="3" height="37"/><rect class="cls-12" x="249" y="66" width="3" height="37"/><rect class="cls-12" x="255" y="66" width="3" height="37"/><rect class="cls-12" x="262" y="66" width="3" height="37"/><rect class="cls-12" x="270" y="66" width="3" height="37"/><rect class="cls-12" x="275" y="66" width="3" height="37"/><rect class="cls-12" x="282" y="66" width="3" height="37"/><rect class="cls-12" x="287" y="66" width="3" height="37"/><rect class="cls-12" x="295" y="66" width="3" height="37"/><rect class="cls-12" x="303" y="66" width="3" height="37"/><rect class="cls-12" x="309" y="66" width="3" height="37"/><rect class="cls-12" x="315" y="66" width="3" height="37"/><rect class="cls-12" x="321" y="66" width="3" height="37"/><rect class="cls-12" x="329" y="66" width="3" height="37"/><rect class="cls-12" x="336" y="66" width="3" height="37"/><rect class="cls-12" x="342" y="66" width="3" height="37"/><rect class="cls-12" x="349" y="66" width="3" height="37"/><rect class="cls-12" x="354" y="66" width="3" height="37"/><rect class="cls-12" x="362" y="66" width="3" height="37"/><rect class="cls-12" x="369" y="66" width="3" height="37"/><rect class="cls-12" x="375" y="66" width="3" height="37"/><rect class="cls-12" x="382" y="66" width="3" height="37"/><rect class="cls-12" x="388" y="66" width="3" height="37"/><rect class="cls-12" x="395" y="66" width="3" height="37"/><rect class="cls-12" x="401" y="66" width="3" height="37"/><rect class="cls-12" x="407" y="66" width="3" height="37"/><rect class="cls-12" x="414" y="66" width="3" height="37"/><rect class="cls-12" x="419" y="66" width="3" height="37"/><rect class="cls-12" x="427" y="66" width="3" height="37"/><rect class="cls-12" x="434" y="66" width="3" height="37"/><rect class="cls-12" x="440" y="66" width="3" height="37"/><rect class="cls-12" x="446" y="66" width="3" height="37"/><rect class="cls-12" x="452" y="66" width="3" height="37"/><rect class="cls-12" x="460" y="66" width="3" height="37"/><rect class="cls-12" x="466" y="66" width="3" height="37"/><rect class="cls-12" x="472" y="66" width="3" height="37"/><rect class="cls-12" x="480" y="66" width="3" height="37"/><rect class="cls-12" x="485" y="66" width="3" height="37"/><rect class="cls-12" x="493" y="66" width="3" height="37"/><rect class="cls-12" x="500" y="66" width="3" height="37"/><rect class="cls-12" x="506" y="66" width="3" height="37"/><rect class="cls-12" x="512" y="66" width="3" height="37"/><rect class="cls-12" x="518" y="66" width="3" height="37"/><rect class="cls-12" x="526" y="66" width="3" height="37"/><rect class="cls-12" x="533" y="66" width="3" height="37"/><rect class="cls-12" x="538" y="66" width="3" height="37"/><rect class="cls-12" x="546" y="66" width="3" height="37"/><rect class="cls-12" x="551" y="66" width="3" height="37"/><rect class="cls-12" x="558" y="66" width="3" height="37"/><rect class="cls-12" x="565" y="66" width="3" height="37"/><rect class="cls-12" x="570" y="66" width="3" height="37"/><rect class="cls-12" x="577" y="66" width="3" height="37"/><rect class="cls-12" x="583" y="66" width="3" height="37"/><rect class="cls-12" x="591" y="66" width="3" height="37"/><rect class="cls-12" x="597" y="66" width="3" height="37"/><rect class="cls-12" x="603" y="66" width="3" height="37"/><rect class="cls-12" x="610" y="66" width="3" height="37"/><rect class="cls-12" x="616" y="66" width="3" height="37"/><rect class="cls-12" x="623" y="66" width="3" height="37"/><rect class="cls-12" x="630" y="66" width="3" height="37"/><rect class="cls-12" x="635" y="66" width="3" height="37"/><rect class="cls-12" x="642" y="66" width="3" height="37"/><rect class="cls-12" x="648" y="66" width="3" height="37"/><rect class="cls-12" x="655" y="66" width="3" height="37"/><rect class="cls-12" x="662" y="66" width="3" height="37"/><rect class="cls-12" x="667" y="66" width="3" height="37"/><rect class="cls-12" x="674" y="66" width="3" height="37"/><rect class="cls-12" x="680" y="66" width="3" height="37"/><rect class="cls-12" x="688" y="66" width="3" height="37"/><rect class="cls-12" x="694" y="66" width="3" height="37"/><rect class="cls-12" x="700" y="66" width="3" height="37"/><rect class="cls-12" x="706" y="66" width="3" height="37"/><rect class="cls-12" x="712" y="66" width="3" height="37"/><rect class="cls-12" x="719" y="66" width="3" height="37"/><rect class="cls-12" x="726" y="66" width="3" height="37"/><rect class="cls-12" x="732" y="66" width="3" height="37"/><rect class="cls-12" x="738" y="66" width="3" height="37"/><rect class="cls-12" x="744" y="66" width="3" height="37"/><rect class="cls-12" x="751" y="66" width="3" height="37"/><rect class="cls-12" x="757" y="66" width="3" height="37"/><rect class="cls-12" x="764" y="66" width="3" height="37"/><rect class="cls-12" x="770" y="66" width="3" height="37"/><rect class="cls-12" x="777" y="66" width="3" height="37"/><rect class="cls-12" x="209.75" y="239" width="2.9" height="39.5"/><rect class="cls-12" x="207" y="283" width="3" height="40"/><rect class="cls-9" x="217" y="328" width="3" height="39.09"/><rect class="cls-9" x="226.5" y="373.5" width="1" height="39.5"/><rect class="cls-10" x="227.5" y="373.5" width="4" height="39.5"/><rect class="cls-10" x="231.5" y="373.5" width="4" height="39.5"/><rect class="cls-10" x="235.5" y="373.5" width="3" height="39.5"/><rect class="cls-12" x="238.5" y="373.5" width="4" height="39.5"/><rect class="cls-12" x="247.5" y="373.5" width="2" height="39.5"/><rect class="cls-12" x="253.5" y="373.5" width="3" height="39.5"/><rect class="cls-12" x="260.5" y="373.5" width="6" height="39.5"/><rect class="cls-12" x="266.5" y="373.5" width="6" height="39.5"/><rect class="cls-12" x="274.5" y="373.5" width="6" height="39.5"/><rect class="cls-12" x="282.5" y="373.5" width="4" height="39.5"/><rect class="cls-12" x="286.5" y="373.5" width="7" height="39.5"/><rect class="cls-12" x="293.5" y="373.5" width="5" height="39.5"/><rect class="cls-12" x="303.5" y="373.5" width="2" height="39.5"/><rect class="cls-12" x="310.5" y="373.5" width="2" height="39.5"/><rect class="cls-12" x="316.5" y="373.5" width="3" height="39.5"/><rect class="cls-12" x="323.5" y="373.5" width="5" height="39.5"/><rect class="cls-12" x="328.5" y="373.5" width="5" height="39.5"/><rect class="cls-12" x="334.5" y="373.5" width="5" height="39.5"/><rect class="cls-12" x="341.5" y="373.5" width="4" height="39.5"/><rect class="cls-12" x="345.5" y="373.5" width="7" height="39.5"/><rect class="cls-12" x="352.5" y="373.5" width="5" height="39.5"/><rect class="cls-12" x="361.5" y="373.5" width="1" height="39.5"/><rect class="cls-12" x="362.5" y="373.5" width="3" height="39.5"/><rect class="cls-12" x="370.5" y="373.5" width="3" height="39.5"/><rect class="cls-12" x="376.5" y="373.5" width="3" height="39.5"/><rect class="cls-12" x="383.5" y="373.5" width="6" height="39.5"/><rect class="cls-12" x="389.5" y="373.5" width="6" height="39.5"/><rect class="cls-12" x="397.5" y="373.5" width="5" height="39.5"/><rect class="cls-12" x="404.5" y="373.5" width="5" height="39.5"/><rect class="cls-12" x="409.5" y="373.5" width="7" height="39.5"/><rect class="cls-12" x="416.5" y="373.5" width="4" height="39.5"/><rect class="cls-12" x="425.5" y="373.5" width="3" height="39.5"/><rect class="cls-12" x="433.5" y="373.5" width="2" height="39.5"/><rect class="cls-12" x="438.5" y="373.5" width="4" height="39.5"/><rect class="cls-12" x="445.5" y="373.5" width="7" height="39.5"/><rect class="cls-12" x="452.5" y="373.5" width="7" height="39.5"/><rect class="cls-12" x="459.5" y="373.5" width="6" height="39.5"/><rect class="cls-12" x="467.5" y="373.5" width="5" height="39.5"/><rect class="cls-12" x="472.5" y="373.5" width="6" height="39.5"/><rect class="cls-12" x="478.5" y="373.5" width="5" height="39.5"/><rect class="cls-12" x="488.5" y="373.5" width="1" height="39.5"/><rect class="cls-12" x="489.5" y="373.5" width="2" height="39.5"/><rect class="cls-12" x="496.5" y="373.5" width="2" height="39.5"/><rect class="cls-12" x="501.5" y="373.5" width="3" height="39.5"/><rect class="cls-12" x="509.5" y="373.5" width="3" height="39.5"/><rect class="cls-12" x="512.5" y="373.5" width="6" height="39.5"/><rect class="cls-12" x="519.5" y="373.5" width="5" height="39.5"/><rect class="cls-12" x="526.5" y="373.5" width="5" height="39.5"/><rect class="cls-12" x="531.5" y="373.5" width="6" height="39.5"/><rect class="cls-12" x="537.5" y="373.5" width="6" height="39.5"/><rect class="cls-12" x="547.5" y="373.5" width="1" height="39.5"/><rect class="cls-11" x="548.5" y="373.5" width="1" height="39.5"/><rect class="cls-12" x="549.5" y="373.5" width="2" height="39.5"/><rect class="cls-12" x="556.5" y="373.5" width="2" height="39.5"/><rect class="cls-12" x="562.5" y="373.5" width="3" height="39.5"/><rect class="cls-12" x="569.5" y="373.5" width="6" height="39.5"/><rect class="cls-12" x="575.5" y="373.5" width="6" height="39.5"/><rect class="cls-12" x="582.5" y="373.5" width="6" height="39.5"/><rect class="cls-12" x="590.5" y="373.5" width="4" height="39.5"/><rect class="cls-12" x="594.5" y="373.5" width="7" height="39.5"/><rect class="cls-12" x="601.5" y="373.5" width="6" height="39.5"/><rect class="cls-12" x="612.5" y="373.5" width="2" height="39.5"/><rect class="cls-12" x="619.5" y="373.5" width="2" height="39.5"/><rect class="cls-12" x="625.5" y="373.5" width="2" height="39.5"/><rect class="cls-12" x="632.5" y="373.5" width="6" height="39.5"/><rect class="cls-12" x="638.5" y="373.5" width="6" height="39.5"/><rect class="cls-12" x="645.5" y="373.5" width="5" height="39.5"/><rect class="cls-12" x="652.5" y="373.5" width="5" height="39.5"/><rect class="cls-12" x="657.5" y="373.5" width="7" height="39.5"/><rect class="cls-12" x="664.5" y="373.5" width="4" height="39.5"/><rect class="cls-12" x="673.5" y="373.5" width="3" height="39.5"/><rect class="cls-12" x="682.5" y="373.5" width="2" height="39.5"/><rect class="cls-12" x="688.5" y="373.5" width="3" height="39.5"/><rect class="cls-12" x="695.5" y="373.5" width="7" height="39.5"/><rect class="cls-12" x="702.5" y="373.5" width="7" height="39.5"/><rect class="cls-12" x="710.5" y="373.5" width="5" height="39.5"/><rect class="cls-12" x="717.5" y="373.5" width="5" height="39.5"/><rect class="cls-12" x="722.5" y="373.5" width="5" height="39.5"/><rect class="cls-12" x="727.5" y="373.5" width="4" height="39.5"/><rect class="cls-12" x="735.5" y="373.5" width="1" height="39.5"/><rect class="cls-12" x="736.5" y="373.5" width="2" height="39.5"/><rect class="cls-12" x="743.5" y="373.5" width="2" height="39.5"/><rect class="cls-12" x="749.5" y="373.5" width="2" height="39.5"/><rect class="cls-12" x="756.5" y="373.5" width="4" height="39.5"/><rect class="cls-12" x="760.5" y="373.5" width="7" height="39.5"/><rect class="cls-12" x="767.5" y="373.5" width="7" height="39.5"/><rect class="cls-12" x="775.5" y="373.5" width="5" height="39.5"/><rect class="cls-12" x="780.5" y="373.5" width="6" height="39.5"/><rect class="cls-12" x="786.5" y="373.5" width="6" height="39.5"/><rect class="cls-12" x="797.5" y="373.5" width="3" height="39.5"/><rect class="cls-12" x="804.5" y="373.5" width="2" height="39.5"/><rect class="cls-12" x="809.5" y="373.5" width="2" height="39.5"/><rect class="cls-12" x="815.5" y="373.5" width="3" height="39.5"/><rect class="cls-12" x="818.5" y="373.5" width="5" height="39.5"/><rect class="cls-12" x="824.5" y="373.5" width="3" height="39.5"/><rect class="cls-12" x="829.5" y="373.5" width="4" height="39.5"/><rect class="cls-12" x="833.5" y="373.5" width="5" height="39.5"/><rect class="cls-12" x="838.5" y="373.5" width="3" height="39.5"/><rect class="cls-10" x="220" y="328" width="4" height="39.09"/><rect class="cls-10" x="224" y="328" width="4" height="39.09"/><rect class="cls-10" x="228" y="328" width="3" height="39.09"/><rect class="cls-10" x="231" y="328" width="4" height="39.09"/><rect class="cls-10" x="235" y="328" width="4" height="39.09"/><rect class="cls-12" x="239" y="328" width="2" height="39.09"/><rect class="cls-12" x="246" y="328" width="2" height="39.09"/><rect class="cls-12" x="251" y="328" width="4" height="39.09"/><rect class="cls-12" x="259" y="328" width="2" height="39.09"/><rect class="cls-12" x="262" y="328" width="5" height="39.09"/><rect class="cls-12" x="267" y="328" width="7" height="39.09"/><rect class="cls-12" x="275" y="328" width="5" height="39.09"/><rect class="cls-12" x="281" y="328" width="6" height="39.09"/><rect class="cls-12" x="287" y="328" width="7" height="39.09"/><rect class="cls-9" x="299" y="328" width="1" height="39.09"/><rect class="cls-12" x="300" y="328" width="2" height="39.09"/><rect class="cls-12" x="302" y="328" width="1" height="39.09"/><rect class="cls-12" x="308" y="328" width="2" height="39.09"/><rect class="cls-12" x="314" y="328" width="4" height="39.09"/><rect class="cls-12" x="322" y="328" width="6" height="39.09"/><rect class="cls-12" x="329" y="328" width="4" height="39.09"/><rect class="cls-12" x="335" y="328" width="4" height="39.09"/><rect class="cls-12" x="339" y="328" width="7" height="39.09"/><rect class="cls-12" x="346" y="328" width="7" height="39.09"/><rect class="cls-9" x="358" y="328" width="4" height="39.09"/><rect class="cls-12" x="362" y="328" width="1" height="39.09"/><rect class="cls-12" x="363" y="328" width="1" height="39.09"/><rect class="cls-12" x="369" y="328" width="2" height="39.09"/><rect class="cls-12" x="375" y="328" width="3" height="39.09"/><rect class="cls-12" x="382" y="328" width="3" height="39.09"/><rect class="cls-12" x="385" y="328" width="4" height="39.09"/><rect class="cls-12" x="391" y="328" width="6" height="39.09"/><rect class="cls-12" x="398" y="328" width="5" height="39.09"/><rect class="cls-12" x="403" y="328" width="7" height="39.09"/><rect class="cls-12" x="410" y="328" width="6" height="39.09"/><rect class="cls-9" x="421" y="328" width="1" height="39.09"/><rect class="cls-12" x="423" y="328" width="2" height="39.09"/><rect class="cls-12" x="430" y="328" width="3" height="39.09"/><rect class="cls-12" x="437" y="328" width="3" height="39.09"/><rect class="cls-12" x="444" y="328" width="3" height="39.09"/><rect class="cls-12" x="447" y="328" width="5" height="39.09"/><rect class="cls-12" x="453" y="328" width="6" height="39.09"/><rect class="cls-12" x="460" y="328" width="5" height="39.09"/><rect class="cls-12" x="465" y="328" width="7" height="39.09"/><rect class="cls-12" x="472" y="328" width="7" height="39.09"/><rect class="cls-9" x="484" y="328" width="1" height="39.09"/><rect class="cls-12" x="485" y="328" width="1" height="39.09"/><rect class="cls-12" x="486" y="328" width="2" height="39.09"/><rect class="cls-12" x="492" y="328" width="3" height="39.09"/><rect class="cls-12" x="498" y="328" width="3" height="39.09"/><rect class="cls-12" x="506" y="328" width="2" height="39.09"/><rect class="cls-12" x="508" y="328" width="5" height="39.09"/><rect class="cls-12" x="514" y="328" width="5" height="39.09"/><rect class="cls-12" x="520" y="328" width="5" height="39.09"/><rect class="cls-12" x="525" y="328" width="6" height="39.09"/><rect class="cls-12" x="531" y="328" width="7" height="39.09"/><rect class="cls-9" x="543" y="328" width="4" height="39.09"/><rect class="cls-12" x="547" y="328" width="2" height="39.09"/><rect class="cls-12" x="549" y="328" width="1" height="39.09"/><rect class="cls-12" x="555" y="328" width="2" height="39.09"/><rect class="cls-12" x="561" y="328" width="3" height="39.09"/><rect class="cls-12" x="568" y="328" width="3" height="39.09"/><rect class="cls-12" x="571" y="328" width="4" height="39.09"/><rect class="cls-12" x="576" y="328" width="7" height="39.09"/><rect class="cls-12" x="584" y="328" width="5" height="39.09"/><rect class="cls-12" x="589" y="328" width="6" height="39.09"/><rect class="cls-12" x="595" y="328" width="7" height="39.09"/><rect class="cls-12" x="607" y="328" width="1" height="39.09"/><rect class="cls-12" x="608" y="328" width="1" height="39.09"/><rect class="cls-12" x="609" y="328" width="3" height="39.09"/><rect class="cls-12" x="616" y="328" width="3" height="39.09"/><rect class="cls-12" x="623" y="328" width="3" height="39.09"/><rect class="cls-12" x="631" y="328" width="2" height="39.09"/><rect class="cls-12" x="633" y="328" width="5" height="39.09"/><rect class="cls-12" x="639" y="328" width="5" height="39.09"/><rect class="cls-12" x="646" y="328" width="5" height="39.09"/><rect class="cls-12" x="651" y="328" width="6" height="39.09"/><rect class="cls-12" x="657" y="328" width="7" height="39.09"/><rect class="cls-9" x="669" y="328" width="1" height="39.09"/><rect class="cls-12" x="670" y="328" width="1" height="39.09"/><rect class="cls-12" x="671" y="328" width="1" height="39.09"/><rect class="cls-12" x="672" y="328" width="2" height="39.09"/><rect class="cls-12" x="678" y="328" width="3" height="39.09"/><rect class="cls-12" x="685" y="328" width="3" height="39.09"/><rect class="cls-12" x="692" y="328" width="6" height="39.09"/><rect class="cls-12" x="698" y="328" width="4" height="39.09"/><rect class="cls-12" x="704" y="328" width="5" height="39.09"/><rect class="cls-12" x="709" y="328" width="7" height="39.09"/><rect class="cls-12" x="716" y="328" width="7" height="39.09"/><rect class="cls-9" x="728" y="328" width="4" height="39.09"/><rect class="cls-12" x="732" y="328" width="1" height="39.09"/><rect class="cls-12" x="733" y="328" width="2" height="39.09"/><rect class="cls-12" x="740" y="328" width="2" height="39.09"/><rect class="cls-12" x="745" y="328" width="3" height="39.09"/><rect class="cls-12" x="753" y="328" width="3" height="39.09"/><rect class="cls-12" x="756" y="328" width="4" height="39.09"/><rect class="cls-12" x="761" y="328" width="6" height="39.09"/><rect class="cls-12" x="769" y="328" width="6" height="39.09"/><rect class="cls-12" x="775" y="328" width="6" height="39.09"/><rect class="cls-12" x="781" y="328" width="6" height="39.09"/><rect class="cls-9" x="792" y="328" width="2" height="39.09"/><rect class="cls-12" x="793.5" y="328.45" width="2" height="39.09"/><rect class="cls-12" x="801" y="328.91" width="2" height="39.09"/><rect class="cls-12" x="806" y="328.91" width="4" height="39.09"/><rect class="cls-12" x="814" y="328.91" width="4" height="39.09"/><rect class="cls-12" x="819" y="328.91" width="4" height="39.09"/><rect class="cls-12" x="825" y="328.91" width="3" height="39.09"/><rect class="cls-12" x="828" y="328.91" width="6" height="39.09"/><rect class="cls-12" x="834" y="328.91" width="4" height="39.09"/><rect class="cls-12" x="214" y="283" width="3" height="40"/><rect class="cls-12" x="220" y="283" width="5" height="40"/><rect class="cls-12" x="229" y="283" width="1" height="40"/><rect class="cls-12" x="230" y="283" width="1" height="40"/><rect class="cls-12" x="231" y="283" width="1" height="40"/><rect class="cls-12" x="232" y="283" width="1" height="40"/><rect class="cls-12" x="235" y="283" width="1" height="40"/><rect class="cls-12" x="236" y="283" width="3" height="40"/><rect class="cls-12" x="244" y="283" width="2" height="40"/><rect class="cls-12" x="251" y="283" width="2" height="40"/><rect class="cls-12" x="257" y="283" width="5" height="40"/><rect class="cls-12" x="266" y="283" width="8" height="40"/><rect class="cls-12" x="274" y="283" width="7" height="40"/><rect class="cls-12" x="282" y="283" width="6" height="40"/><rect class="cls-12" x="289" y="283" width="5" height="40"/><rect class="cls-12" x="294" y="283" width="5" height="40"/><rect class="cls-12" x="299" y="283" width="2" height="40"/><rect class="cls-12" x="306" y="283" width="1" height="40"/><rect class="cls-12" x="307" y="283" width="2" height="40"/><rect class="cls-12" x="313" y="283" width="5" height="40"/><rect class="cls-12" x="321" y="283" width="7" height="40"/><rect class="cls-12" x="333" y="283" width="7" height="40"/><rect class="cls-12" x="340" y="283" width="6" height="40"/><rect class="cls-12" x="347" y="283" width="6" height="40"/><rect class="cls-12" x="355" y="283" width="2" height="40"/><rect class="cls-12" x="357" y="283" width="3" height="40"/><rect class="cls-12" x="360" y="283" width="2" height="40"/><rect class="cls-12" x="367" y="283" width="2" height="40"/><rect class="cls-12" x="374" y="283" width="2" height="40"/><rect class="cls-12" x="380" y="283" width="4" height="40"/><rect class="cls-12" x="389" y="283" width="8" height="40"/><rect class="cls-12" x="397" y="283" width="6" height="40"/><rect class="cls-12" x="404" y="283" width="5" height="40"/><rect class="cls-12" x="411" y="283" width="5" height="40"/><rect class="cls-12" x="416" y="283" width="5" height="40"/><rect class="cls-12" x="421" y="283" width="2" height="40"/><rect class="cls-12" x="428" y="283" width="1" height="40"/><rect class="cls-12" x="429" y="283" width="1" height="40"/><rect class="cls-12" x="430" y="283" width="1" height="40"/><rect class="cls-12" x="436" y="283" width="3" height="40"/><rect class="cls-12" x="442" y="283" width="5" height="40"/><rect class="cls-12" x="451" y="283" width="8" height="40"/><rect class="cls-12" x="459" y="283" width="7" height="40"/><rect class="cls-12" x="466" y="283" width="6" height="40"/><rect class="cls-12" x="474" y="283" width="5" height="40"/><rect class="cls-12" x="479" y="283" width="5" height="40"/><rect class="cls-12" x="484" y="283" width="2" height="40"/><rect class="cls-9" x="490" y="283" width="2" height="40"/><rect class="cls-10" x="492" y="283" width="2" height="40"/><rect class="cls-12" x="494" y="283" width="2" height="40"/><rect class="cls-12" x="501" y="283" width="2" height="40"/><rect class="cls-12" x="507" y="283" width="6" height="40"/><rect class="cls-12" x="517" y="283" width="8" height="40"/><rect class="cls-12" x="525" y="283" width="6" height="40"/><rect class="cls-12" x="532" y="283" width="6" height="40"/><rect class="cls-12" x="540" y="283" width="4" height="40"/><rect class="cls-12" x="544" y="283" width="2" height="40"/><rect class="cls-12" x="546" y="283" width="2" height="40"/><rect class="cls-12" x="553" y="283" width="1" height="40"/><rect class="cls-12" x="554" y="283" width="2" height="40"/><rect class="cls-12" x="560" y="283" width="2" height="40"/><rect class="cls-12" x="566" y="283" width="4" height="40"/><rect class="cls-12" x="575" y="283" width="7" height="40"/><rect class="cls-12" x="582" y="283" width="7" height="40"/><rect class="cls-12" x="589" y="283" width="7" height="40"/><rect class="cls-12" x="597" y="283" width="5" height="40"/><rect class="cls-12" x="602" y="283" width="5" height="40"/><rect class="cls-12" x="607" y="283" width="2" height="40"/><rect class="cls-12" x="614" y="283" width="1" height="40"/><rect class="cls-12" x="615" y="283" width="1" height="40"/><rect class="cls-12" x="616" y="283" width="2" height="40"/><rect class="cls-12" x="623" y="283" width="2" height="40"/><rect class="cls-12" x="628" y="283" width="5" height="40"/><rect class="cls-12" x="637" y="283" width="7" height="40"/><rect class="cls-12" x="644" y="283" width="7" height="40"/><rect class="cls-12" x="652" y="283" width="5" height="40"/><rect class="cls-12" x="659" y="283" width="5" height="40"/><rect class="cls-12" x="664" y="283" width="5" height="40"/><rect class="cls-12" x="669" y="283" width="2" height="40"/><rect class="cls-12" x="676" y="283" width="2" height="40"/><rect class="cls-12" x="678" y="283" width="1" height="40"/><rect class="cls-12" x="684" y="283" width="4" height="40"/><rect class="cls-12" x="692" y="283" width="6" height="40"/><rect class="cls-12" x="702" y="283" width="6" height="40"/><rect class="cls-12" x="709" y="283" width="7" height="40"/><rect class="cls-12" x="717" y="283" width="6" height="40"/><rect class="cls-12" x="725" y="283" width="2" height="40"/><rect class="cls-12" x="727" y="283" width="4" height="40"/><rect class="cls-12" x="731" y="283" width="2" height="40"/><rect class="cls-12" x="751" y="283" width="4" height="40"/><rect class="cls-12" x="760" y="283" width="7" height="40"/><rect class="cls-12" x="767" y="283" width="7" height="40"/><rect class="cls-12" x="775" y="283" width="5" height="40"/><rect class="cls-12" x="782" y="283" width="5" height="40"/><rect class="cls-12" x="787" y="283" width="5" height="40"/><rect class="cls-12" x="792" y="283" width="2" height="40"/><rect class="cls-12" x="745" y="283" width="2" height="40"/><rect class="cls-12" x="739" y="283" width="1" height="40"/><rect class="cls-12" x="738" y="283" width="1" height="40"/><rect class="cls-12" x="216.51" y="239" width="2.9" height="39.5"/><rect class="cls-12" x="222.3" y="239" width="2.9" height="39.5"/><rect class="cls-12" x="228.09" y="239" width="2.9" height="39.5"/><rect class="cls-12" x="243.53" y="239" width="2.9" height="39.5"/><rect class="cls-12" x="247.39" y="239" width="1.93" height="39.5"/><rect class="cls-12" x="250.28" y="239" width="2.9" height="39.5"/><rect class="cls-12" x="258.01" y="239" width="2.9" height="39.5"/><rect class="cls-12" x="264.76" y="239" width="2.9" height="39.5"/><rect class="cls-12" x="272.48" y="239" width="3.86" height="39.5"/><rect class="cls-12" x="276.34" y="239" width="6.76" height="39.5"/><rect class="cls-12" x="283.1" y="239" width="6.76" height="39.5"/><rect class="cls-12" x="290.82" y="239" width="4.83" height="39.5"/><rect class="cls-12" x="295.65" y="239" width="6.76" height="39.5"/><rect class="cls-12" x="302.4" y="239" width="4.83" height="39.5"/><rect class="cls-12" x="312.05" y="239" width="0.97" height="39.5"/><rect class="cls-12" x="313.02" y="239" width="1.93" height="39.5"/><rect class="cls-12" x="319.77" y="239" width="1.93" height="39.5"/><rect class="cls-12" x="325.56" y="239" width="2.9" height="39.5"/><rect class="cls-12" x="333.28" y="239" width="6.76" height="39.5"/><rect class="cls-12" x="340.04" y="239" width="6.76" height="39.5"/><rect class="cls-12" x="346.8" y="239" width="5.79" height="39.5"/><rect class="cls-12" x="354.52" y="239" width="4.83" height="39.5"/><rect class="cls-12" x="359.34" y="239" width="3.86" height="39.5"/><rect class="cls-12" x="363.2" y="239" width="3.86" height="39.5"/><rect class="cls-12" x="370.92" y="239" width="0.97" height="39.5"/><rect class="cls-12" x="372.85" y="239" width="0.97" height="39.5"/><rect class="cls-12" x="378.65" y="239" width="0.97" height="39.5"/><rect class="cls-12" x="383.47" y="239" width="2.9" height="39.5"/><rect class="cls-12" x="391.19" y="239" width="3.86" height="39.5"/><rect class="cls-12" x="395.05" y="239" width="5.79" height="39.5"/><rect class="cls-12" x="401.81" y="239" width="5.79" height="39.5"/><rect class="cls-12" x="409.53" y="239" width="3.86" height="39.5"/><rect class="cls-12" x="413.39" y="239" width="6.76" height="39.5"/><rect class="cls-12" x="420.15" y="239" width="4.83" height="39.5"/><rect class="cls-12" x="429.8" y="239" width="0.97" height="39.5"/><rect class="cls-12" x="431.73" y="239" width="1.93" height="39.5"/><rect class="cls-12" x="437.52" y="239" width="1.93" height="39.5"/><rect class="cls-12" x="443.31" y="239" width="3.86" height="39.5"/><rect class="cls-12" x="451.03" y="239" width="3.86" height="39.5"/><rect class="cls-12" x="454.89" y="239" width="6.76" height="39.5"/><rect class="cls-12" x="462.61" y="239" width="5.79" height="39.5"/><rect class="cls-12" x="469.37" y="239" width="4.83" height="39.5"/><rect class="cls-12" x="474.19" y="239" width="6.76" height="39.5"/><rect class="cls-12" x="480.95" y="239" width="4.83" height="39.5"/><rect class="cls-12" x="490.6" y="239" width="0.97" height="39.5"/><rect class="cls-12" x="491.56" y="239" width="2.9" height="39.5"/><rect class="cls-12" x="499.28" y="239" width="1.93" height="39.5"/><rect class="cls-12" x="504.11" y="239" width="4.83" height="39.5"/><rect class="cls-12" x="513.76" y="239" width="4.83" height="39.5"/><rect class="cls-12" x="519.55" y="239" width="4.83" height="39.5"/><rect class="cls-12" x="525.34" y="239" width="5.79" height="39.5"/><rect class="cls-12" x="533.06" y="239" width="3.86" height="39.5"/><rect class="cls-12" x="536.92" y="239" width="5.79" height="39.5"/><rect class="cls-12" x="542.72" y="239" width="3.86" height="39.5"/><rect class="cls-12" x="550.44" y="239" width="0.97" height="39.5"/><rect class="cls-12" x="551.4" y="239" width="1.93" height="39.5"/><rect class="cls-12" x="558.16" y="239" width="0.97" height="39.5"/><rect class="cls-12" x="562.98" y="239" width="2.9" height="39.5"/><rect class="cls-12" x="569.74" y="239" width="3.86" height="39.5"/><rect class="cls-12" x="574.56" y="239" width="6.76" height="39.5"/><rect class="cls-12" x="581.32" y="239" width="5.79" height="39.5"/><rect class="cls-12" x="589.04" y="239" width="4.83" height="39.5"/><rect class="cls-12" x="593.87" y="239" width="5.79" height="39.5"/><rect class="cls-12" x="599.66" y="239" width="5.79" height="39.5"/><rect class="cls-12" x="609.31" y="239" width="0.97" height="39.5"/><rect class="cls-12" x="610.27" y="239" width="2.9" height="39.5"/><rect class="cls-12" x="617.03" y="239" width="2.9" height="39.5"/><rect class="cls-12" x="623.78" y="239" width="2.9" height="39.5"/><rect class="cls-12" x="630.54" y="239" width="3.86" height="39.5"/><rect class="cls-12" x="634.4" y="239" width="5.79" height="39.5"/><rect class="cls-12" x="641.16" y="239" width="5.79" height="39.5"/><rect class="cls-12" x="648.88" y="239" width="3.86" height="39.5"/><rect class="cls-12" x="652.74" y="239" width="6.76" height="39.5"/><rect class="cls-12" x="659.49" y="239" width="4.83" height="39.5"/><rect class="cls-12" x="669.15" y="239" width="0.97" height="39.5"/><rect class="cls-12" x="670.11" y="239" width="0.97" height="39.5"/><rect class="cls-12" x="676.87" y="239" width="0.97" height="39.5"/><rect class="cls-12" x="681.69" y="239" width="2.9" height="39.5"/><rect class="cls-12" x="688.45" y="239" width="3.86" height="39.5"/><rect class="cls-12" x="692.31" y="239" width="3.86" height="39.5"/><rect class="cls-12" x="697.13" y="239" width="5.79" height="39.5"/><rect class="cls-12" x="704.85" y="239" width="4.83" height="39.5"/><rect class="cls-12" x="709.68" y="239" width="6.76" height="39.5"/><rect class="cls-12" x="716.44" y="239" width="4.83" height="39.5"/><rect class="cls-12" x="726.09" y="239" width="0.97" height="39.5"/><rect class="cls-12" x="727.05" y="239" width="2.9" height="39.5"/><rect class="cls-12" x="733.81" y="239" width="2.9" height="39.5"/><rect class="cls-12" x="739.6" y="239" width="2.9" height="39.5"/><rect class="cls-12" x="746.35" y="239" width="6.76" height="39.5"/><rect class="cls-12" x="753.11" y="239" width="6.76" height="39.5"/><rect class="cls-12" x="759.87" y="239" width="6.76" height="39.5"/><rect class="cls-12" x="767.59" y="239" width="3.86" height="39.5"/><rect class="cls-12" x="771.45" y="239" width="6.76" height="39.5"/><rect class="cls-12" x="778.2" y="239" width="4.83" height="39.5"/><rect class="cls-12" x="787.85" y="239" width="3.86" height="39.5"/><rect class="cls-12" x="796.54" y="239" width="2.9" height="39.5"/><rect class="cls-12" x="802.33" y="239" width="1.93" height="39.5"/><rect class="cls-12" x="808.12" y="239" width="4.83" height="39.5"/><rect class="cls-12" x="812.95" y="239" width="4.83" height="39.5"/><rect class="cls-12" x="818.74" y="239" width="4.83" height="39.5"/><rect class="cls-12" x="824.53" y="239" width="2.9" height="39.5"/><rect class="cls-12" x="827.42" y="239" width="2.9" height="39.5"/><rect class="cls-12" x="830.32" y="239" width="1.93" height="39.5"/><rect class="cls-9" x="233.88" y="239" width="2.12" height="39.5"/><rect class="cls-10" x="235.88" y="239" width="2.12" height="39.5"/></g></svg>