<svg xmlns="http://www.w3.org/2000/svg" viewBox="0 0 705 754"><defs><style>.cls-1{fill:#ebebeb;}.cls-2,.cls-6,.cls-7,.cls-8{fill:none;stroke-miterlimit:10;}.cls-2{stroke:#4c4c4c;stroke-width:2px;}.cls-3{font-size:14px;}.cls-3,.cls-4,.cls-5{fill:#182e3f;}.cls-3,.cls-4{font-family:OpenSans-Light, Open Sans;}.cls-4{font-size:19px;}.cls-5{font-size:28px;font-family:OpenSans-Semibold, Open Sans;font-weight:700;}.cls-6{stroke:#584872;}.cls-6,.cls-7,.cls-8{stroke-width:4px;}.cls-7{stroke:#1d681d;}.cls-8{stroke:#915626;}.cls-9{fill:#fdc086;}.cls-10{fill:#beaed4;}.cls-11{fill:#584872;}.cls-12{fill:#915626;}.cls-13{fill:#7fc97f;}</style></defs><title>boxplot</title><g id="axes_and_marks-2" data-name="axes and marks"><rect class="cls-1" x="68" y="56" width="589" height="646"/><line class="cls-2" x1="61" y1="96" x2="657" y2="96"/><line class="cls-2" x1="68" y1="193" x2="657" y2="193"/><line class="cls-2" x1="68" y1="385" x2="657" y2="385"/><line class="cls-2" x1="68" y1="577" x2="657" y2="577"/><line class="cls-2" x1="61" y1="289" x2="657" y2="289"/><line class="cls-2" x1="61" y1="481" x2="657" y2="481"/><line class="cls-2" x1="61" y1="673" x2="657" y2="673"/><text class="cls-3" transform="translate(50.96 676.45)">0</text><text class="cls-3" transform="translate(50.96 486.45)">5</text><text class="cls-3" transform="translate(41.96 293.45)">10</text><text class="cls-3" transform="translate(41.96 100.45)">15</text><text class="cls-4" transform="translate(32 449.65) rotate(-90)">Time (seconds)</text><text class="cls-4" transform="translate(139.47 725.78)">1 worker</text><text class="cls-4" transform="translate(320.04 725.78)">4 workers</text><text class="cls-4" transform="translate(499.62 723.78)">16 workers</text><text class="cls-5" transform="translate(75.84 43.86)">Event 00: WS_PUT</text></g><g id="boxes_and_dots" data-name="boxes and dots"><line class="cls-6" x1="362" y1="550" x2="362" y2="664"/><line class="cls-7" x1="177" y1="666" x2="177" y2="674"/><line class="cls-8" x1="547" y1="119" x2="547" y2="637"/><rect class="cls-9" x="476" y="310" width="140" height="136"/><rect class="cls-10" x="292" y="564" width="140" height="69"/><rect class="cls-11" x="292" y="601" width="140" height="4"/><rect class="cls-12" x="476" y="362" width="140" height="4"/><rect class="cls-13" x="108" y="666" width="140" height="4"/><circle class="cls-12" cx="546" cy="85" r="5"/><circle class="cls-11" cx="362" cy="372" r="5"/><circle class="cls-11" cx="362" cy="466" r="5"/></g></svg>